# xmcd
#
# Track frame offsets: 
#        150
#        9555
#        25425
#        35122
#        44537
#        57317
#        64972
#        77255
#        96360
#        103425
#        128347
#        136090
#        155105
#        166970
#        176667
#        198392
#        207902
#        219832
#        227805
#        235035
#        244837
#        254372
#        264887
#        272735
#
# Disc length: 3883 seconds
#
# Revision: 7
# Processed by: cddbd v1.5.2PL0 Copyright (c) Steve Scherf et al.
# Submitted via: ExactAudioCopy v0.95b3
#
DISCID=540f2918
DTITLE=Momus - The Little Red Songbook
DYEAR=2004
DGENRE=Pop
TTITLE0=Old Friend, New Flame
TTITLE1=MC Escher
TTITLE2=Who Is Mr. Jones?
TTITLE3=Harry K-Tel
TTITLE4=Lucretia Borgia
TTITLE5=How To Spot An Invert
TTITLE6=Everyone I Have Ever Slept With
TTITLE7=Born To Be Adored
TTITLE8=Coming In A Girl's Mouth
TTITLE9=What Are You Wearing?
TTITLE10=The New Decameron
TTITLE11=The Symphonies Of Beethoven
TTITLE12=Tragedy And Farce
TTITLE13=Miss X, An Ex-Lover
TTITLE14=A White Oriental Flower
TTITLE15=Old Friend, New Flame (Karaoke)
TTITLE16=Tragedy And Farce (Karaoke)
TTITLE17=The New Decameron (Karaoke)
TTITLE18=Coming In A Girl's Mouth (Karaoke)
TTITLE19=Miss X, An Ex-Lover (Karaoke)
TTITLE20=Harry K-Tel (Karaoke)
TTITLE21=Who Is Mr. Jones? (Karaoke)
TTITLE22=How To Spot An Invert (Karaoke)
TTITLE23=The Symphonies Of Beethoven (Karaoke)
EXTD=
EXTT0=
EXTT1=
EXTT2=
EXTT3=
EXTT4=
EXTT5=
EXTT6=
EXTT7=
EXTT8=
EXTT9=
EXTT10=
EXTT11=
EXTT12=
EXTT13=
EXTT14=
EXTT15=
EXTT16=
EXTT17=
EXTT18=
EXTT19=
EXTT20=
EXTT21=
EXTT22=
EXTT23=
PLAYORDER=
